<svg viewBox="0 0 144 42" fill="none" xmlns="http://www.w3.org/2000/svg" class="sc-e0bcd960-3 gXSiOP"><path d="M23.755 0a9.504 9.504 0 0 0-9.504 9.504v1.784H19V9.504a4.756 4.756 0 0 1 4.748-4.748 4.756 4.756 0 0 1 4.748 4.748 4.755 4.755 0 0 1-4.748 4.747H9.504a9.504 9.504 0 0 0 0 19.008h1.784V28.51H9.504a4.755 4.755 0 0 1-4.748-4.748 4.755 4.755 0 0 1 4.748-4.748h4.747v14.252H19V19.015h4.748c5.248 0 9.504-4.255 9.504-9.503C33.25 4.263 29.004 0 23.755 0ZM45.823 18.902v8.77c0 .605.145 1.049.444 1.323.299.275.791.412 1.486.412h2.123v3.86h-2.882c-3.86 0-5.79-1.874-5.79-5.628V18.91h-2.156v-3.762h2.156v-4.482h4.61v4.482h4.054v3.762h-4.053l.008-.008ZM61.414 15.689c.953-.541 2.035-.816 3.254-.816v4.804h-1.21c-1.438 0-2.528.34-3.255 1.018-.727.678-1.098 1.857-1.098 3.537v9.027h-4.578v-18.12h4.578v2.81a6.45 6.45 0 0 1 2.31-2.26ZM67.22 19.21c.727-1.422 1.72-2.512 2.98-3.271 1.251-.767 2.656-1.147 4.206-1.147 1.349 0 2.536.275 3.545.816 1.01.54 1.825 1.235 2.438 2.059v-2.584H85v18.12h-4.61v-2.65c-.589.848-1.405 1.551-2.438 2.108-1.034.557-2.229.84-3.585.84-1.526 0-2.915-.396-4.167-1.179-1.251-.783-2.244-1.89-2.979-3.319-.727-1.429-1.098-3.068-1.098-4.925 0-1.857.363-3.456 1.098-4.877v.008Zm12.515 2.074a4.607 4.607 0 0 0-1.768-1.833 4.713 4.713 0 0 0-2.39-.638 4.7 4.7 0 0 0-2.358.622c-.718.412-1.3 1.018-1.752 1.817-.452.8-.67 1.736-.67 2.826s.226 2.043.67 2.858c.444.816 1.034 1.446 1.768 1.882a4.48 4.48 0 0 0 2.342.654c.832 0 1.647-.21 2.39-.638A4.606 4.606 0 0 0 79.735 27c.436-.8.654-1.752.654-2.858 0-1.107-.218-2.067-.654-2.859ZM106.317 15.132 95.093 41.825h-4.869l3.924-9.028-7.259-17.666h5.136l4.675 12.66 4.74-12.66h4.877ZM105.105 32.718c-.533-.509-.799-1.147-.799-1.914 0-.767.266-1.397.799-1.914.533-.516 1.22-.767 2.043-.767.824 0 1.47.259 1.995.767.524.51.783 1.147.783 1.914 0 .767-.259 1.405-.783 1.914-.525.516-1.187.767-1.995.767-.807 0-1.51-.259-2.043-.767ZM113.398 19.258c.727-1.421 1.72-2.512 2.979-3.27 1.252-.768 2.657-1.147 4.207-1.147 1.349 0 2.536.274 3.545.815 1.009.541 1.825 1.236 2.438 2.06V15.13h4.611v18.12h-4.611v-2.649c-.589.848-1.405 1.55-2.438 2.108-1.034.557-2.229.84-3.585.84-1.526 0-2.915-.396-4.167-1.18-1.251-.783-2.244-1.889-2.979-3.318-.727-1.43-1.098-3.068-1.098-4.925 0-1.858.363-3.456 1.098-4.877v.008Zm12.515 2.075a4.604 4.604 0 0 0-1.768-1.833 4.713 4.713 0 0 0-2.39-.638 4.7 4.7 0 0 0-2.358.622c-.718.411-1.3 1.017-1.752 1.816-.452.8-.67 1.736-.67 2.826s.226 2.043.67 2.859c.444.815 1.034 1.445 1.768 1.881.727.436 1.51.654 2.342.654.832 0 1.647-.21 2.39-.638a4.603 4.603 0 0 0 1.768-1.833c.436-.799.654-1.752.654-2.858s-.218-2.067-.654-2.858ZM140.237 15.132V33.25h-4.578V15.13h4.578ZM137.944 2.14A6.058 6.058 0 0 0 144 8.196a6.058 6.058 0 0 0-6.056 6.055 6.058 6.058 0 0 0-6.056-6.055 6.058 6.058 0 0 0 6.056-6.056Z" fill="#4A54F5"></path></svg>